<svg width="19" height="19" viewBox="0 0 19 19" fill="none" xmlns="http://www.w3.org/2000/svg">
<path d="M1.9 16.09C1.9 16.3552 1.79991 16.6096 1.62175 16.7971C1.44359 16.9846 1.20196 17.09 0.95 17.09C0.698044 17.09 0.456408 16.9846 0.278249 16.7971C0.100089 16.6096 0 16.3552 0 16.09V10C0 4.477 4.25315 0 9.5 0C14.7469 0 19 4.477 19 10V13.086C19 13.3512 18.8999 13.6056 18.7218 13.7931C18.5436 13.9806 18.302 14.086 18.05 14.086C17.798 14.086 17.5564 13.9806 17.3782 13.7931C17.2001 13.6056 17.1 13.3512 17.1 13.086V10C17.1 7.87827 16.2993 5.84344 14.874 4.34315C13.4487 2.84285 11.5156 2 9.5 2C7.48435 2 5.55126 2.84285 4.12599 4.34315C2.70071 5.84344 1.9 7.87827 1.9 10V16.09ZM1.9 10H3.8C4.30391 10 4.78718 10.2107 5.1435 10.5858C5.49982 10.9609 5.7 11.4696 5.7 12V17C5.7 17.5304 5.49982 18.0391 5.1435 18.4142C4.78718 18.7893 4.30391 19 3.8 19H1.9C1.39609 19 0.912816 18.7893 0.556497 18.4142C0.200178 18.0391 0 17.5304 0 17V12C0 11.4696 0.200178 10.9609 0.556497 10.5858C0.912816 10.2107 1.39609 10 1.9 10ZM1.9 12V17H3.8V12H1.9ZM15.2 10H17.1C17.6039 10 18.0872 10.2107 18.4435 10.5858C18.7998 10.9609 19 11.4696 19 12V17C19 17.5304 18.7998 18.0391 18.4435 18.4142C18.0872 18.7893 17.6039 19 17.1 19H15.2C14.6961 19 14.2128 18.7893 13.8565 18.4142C13.5002 18.0391 13.3 17.5304 13.3 17V12C13.3 11.4696 13.5002 10.9609 13.8565 10.5858C14.2128 10.2107 14.6961 10 15.2 10ZM15.2 12V17H17.1V12H15.2Z" fill="#545F71"/>
</svg>
