<svg width="20" height="20" viewBox="0 0 20 20" fill="none" xmlns="http://www.w3.org/2000/svg">
<path d="M7.1875 8.125C7.1875 8.20788 7.15458 8.28737 7.09597 8.34597C7.03737 8.40458 6.95788 8.4375 6.875 8.4375C6.79212 8.4375 6.71263 8.40458 6.65403 8.34597C6.59542 8.28737 6.5625 8.20788 6.5625 8.125C6.5625 8.04212 6.59542 7.96264 6.65403 7.90403C6.71263 7.84543 6.79212 7.8125 6.875 7.8125C6.95788 7.8125 7.03737 7.84543 7.09597 7.90403C7.15458 7.96264 7.1875 8.04212 7.1875 8.125ZM7.1875 8.125H6.875M10.3125 8.125C10.3125 8.20788 10.2796 8.28737 10.221 8.34597C10.1624 8.40458 10.0829 8.4375 10 8.4375C9.91712 8.4375 9.83763 8.40458 9.77903 8.34597C9.72042 8.28737 9.6875 8.20788 9.6875 8.125C9.6875 8.04212 9.72042 7.96264 9.77903 7.90403C9.83763 7.84543 9.91712 7.8125 10 7.8125C10.0829 7.8125 10.1624 7.84543 10.221 7.90403C10.2796 7.96264 10.3125 8.04212 10.3125 8.125ZM10.3125 8.125H10M13.4375 8.125C13.4375 8.20788 13.4046 8.28737 13.346 8.34597C13.2874 8.40458 13.2079 8.4375 13.125 8.4375C13.0421 8.4375 12.9626 8.40458 12.904 8.34597C12.8454 8.28737 12.8125 8.20788 12.8125 8.125C12.8125 8.04212 12.8454 7.96264 12.904 7.90403C12.9626 7.84543 13.0421 7.8125 13.125 7.8125C13.2079 7.8125 13.2874 7.84543 13.346 7.90403C13.4046 7.96264 13.4375 8.04212 13.4375 8.125ZM13.4375 8.125H13.125M1.875 10.6333C1.875 11.9667 2.81083 13.1283 4.13083 13.3225C5.03667 13.4558 5.95167 13.5583 6.875 13.63V17.5L10.3617 14.0142C10.5343 13.8422 10.7664 13.7432 11.01 13.7375C12.6363 13.6975 14.2588 13.5589 15.8683 13.3225C17.1892 13.1283 18.125 11.9675 18.125 10.6325V5.6175C18.125 4.2825 17.1892 3.12167 15.8692 2.9275C13.9258 2.64226 11.9642 2.49938 10 2.5C8.00667 2.5 6.04667 2.64584 4.13083 2.9275C2.81083 3.12167 1.875 4.28334 1.875 5.6175V10.6325V10.6333Z" stroke="#545F71" stroke-width="1.5" stroke-linecap="round" stroke-linejoin="round"/>
</svg>
