<svg width="21" height="20" viewBox="0 0 21 20" fill="none" xmlns="http://www.w3.org/2000/svg">
<path d="M0.75 2.06476e-08C0.551088 2.06476e-08 0.360322 0.0790175 0.21967 0.21967C0.0790177 0.360322 0 0.551088 0 0.75C0 0.948912 0.0790177 1.13968 0.21967 1.28033C0.360322 1.42098 0.551088 1.5 0.75 1.5H2.136C2.306 1.5 2.454 1.614 2.498 1.778L5.056 11.37C4.25257 11.5793 3.54126 12.0492 3.03349 12.7061C2.52572 13.363 2.25017 14.1697 2.25 15C2.25 15.414 2.586 15.75 3 15.75H18.75C18.9489 15.75 19.1397 15.671 19.2803 15.5303C19.421 15.3897 19.5 15.1989 19.5 15C19.5 14.8011 19.421 14.6103 19.2803 14.4697C19.1397 14.329 18.9489 14.25 18.75 14.25H3.878C4.03313 13.8112 4.32052 13.4313 4.70056 13.1627C5.0806 12.894 5.5346 12.7499 6 12.75H17.218C17.3585 12.75 17.4962 12.7105 17.6153 12.6361C17.7345 12.5617 17.8304 12.4553 17.892 12.329C19.0337 9.9861 20.0224 7.57171 20.852 5.101C20.8848 5.00326 20.897 4.89981 20.8881 4.79712C20.8791 4.69442 20.849 4.59468 20.7997 4.50413C20.7505 4.41357 20.6831 4.33415 20.6017 4.27081C20.5204 4.20747 20.4269 4.16158 20.327 4.136C15.0528 2.79115 9.62205 2.15985 4.18 2.259L3.948 1.392C3.84156 0.992741 3.60621 0.639824 3.27853 0.388098C2.95086 0.136373 2.5492 -6.12794e-05 2.136 2.06476e-08H0.75ZM2.25 18C2.25 17.6022 2.40804 17.2206 2.68934 16.9393C2.97064 16.658 3.35218 16.5 3.75 16.5C4.14782 16.5 4.52936 16.658 4.81066 16.9393C5.09196 17.2206 5.25 17.6022 5.25 18C5.25 18.3978 5.09196 18.7794 4.81066 19.0607C4.52936 19.342 4.14782 19.5 3.75 19.5C3.35218 19.5 2.97064 19.342 2.68934 19.0607C2.40804 18.7794 2.25 18.3978 2.25 18ZM15 18C15 17.6022 15.158 17.2206 15.4393 16.9393C15.7206 16.658 16.1022 16.5 16.5 16.5C16.8978 16.5 17.2794 16.658 17.5607 16.9393C17.842 17.2206 18 17.6022 18 18C18 18.3978 17.842 18.7794 17.5607 19.0607C17.2794 19.342 16.8978 19.5 16.5 19.5C16.1022 19.5 15.7206 19.342 15.4393 19.0607C15.158 18.7794 15 18.3978 15 18Z" fill="#545F71"/>
</svg>
